HIERARCHY
ROOT reference
{
  OFFSET 0 0 0
  CHANNELS 6 Xposition Yposition Zposition Zrotation Xrotation Yrotation
  JOINT Hips
  {
    OFFSET 7.03251 94.7038 98.073
    CHANNELS 6 Xposition Yposition Zposition Zrotation Xrotation Yrotation
    JOINT Spine
    {
      OFFSET 0 7.86299 0
      CHANNELS 6 Xposition Yposition Zposition Zrotation Xrotation Yrotation
      JOINT Spine1
      {
        OFFSET 0 22.6654 0
        CHANNELS 6 Xposition Yposition Zposition Zrotation Xrotation Yrotation
        JOINT Neck
        {
          OFFSET 0 22.5723 2.05203
          CHANNELS 6 Xposition Yposition Zposition Zrotation Xrotation Yrotation
          JOINT Head
          {
            OFFSET 0 13.4246 -1.9178
            CHANNELS 6 Xposition Yposition Zposition Zrotation Xrotation Yrotation
            End Site
            {
              OFFSET 0 23.9725 0
            }
          }
        }
        JOINT LeftShoulder
        {
          OFFSET 3.7941 20.1358 -0.319195
          CHANNELS 6 Xposition Yposition Zposition Zrotation Xrotation Yrotation
          JOINT LeftArm
          {
            OFFSET 12.7665 0 0
            CHANNELS 6 Xposition Yposition Zposition Zrotation Xrotation Yrotation
            JOINT LeftForeArm
            {
              OFFSET 28.396 0 0
              CHANNELS 6 Xposition Yposition Zposition Zrotation Xrotation Yrotation
              JOINT LeftHand
              {
                OFFSET 28.7929 0 0
                CHANNELS 6 Xposition Yposition Zposition Zrotation Xrotation Yrotation
                End Site
                {
                  OFFSET 14.3835 0 0
                }
              }
            }
          }
        }
        JOINT RightShoulder
        {
          OFFSET -3.85764 20.1358 -0.319195
          CHANNELS 6 Xposition Yposition Zposition Zrotation Xrotation Yrotation
          JOINT RightArm
          {
            OFFSET -12.7665 0 0
            CHANNELS 6 Xposition Yposition Zposition Zrotation Xrotation Yrotation
            JOINT RightForeArm
            {
              OFFSET -28.396 0 0
              CHANNELS 6 Xposition Yposition Zposition Zrotation Xrotation Yrotation
              JOINT RightHand
              {
                OFFSET -28.7929 0 0
                CHANNELS 6 Xposition Yposition Zposition Zrotation Xrotation Yrotation
                End Site
                {
                  OFFSET -14.3835 0 0
                }
              }
            }
          }
        }
      }
    }
    JOINT LeftUpLeg
    {
      OFFSET 9.58901 0 0
      CHANNELS 6 Xposition Yposition Zposition Zrotation Xrotation Yrotation
      JOINT LeftLeg
      {
        OFFSET 0 -41.7092 0
        CHANNELS 6 Xposition Yposition Zposition Zrotation Xrotation Yrotation
        JOINT LeftFoot
        {
          OFFSET 0 -41.5308 0
          CHANNELS 6 Xposition Yposition Zposition Zrotation Xrotation Yrotation
          JOINT LeftToeBase
          {
            OFFSET 0 -6.23286 14.3835
            CHANNELS 6 Xposition Yposition Zposition Zrotation Xrotation Yrotation
            End Site
            {
              OFFSET 0 0 3.8356
            }
          }
        }
      }
    }
    JOINT RightUpLeg
    {
      OFFSET -9.58901 0 0
      CHANNELS 6 Xposition Yposition Zposition Zrotation Xrotation Yrotation
      JOINT RightLeg
      {
        OFFSET 0 -41.7092 0
        CHANNELS 6 Xposition Yposition Zposition Zrotation Xrotation Yrotation
        JOINT RightFoot
        {
          OFFSET 0 -41.5308 0
          CHANNELS 6 Xposition Yposition Zposition Zrotation Xrotation Yrotation
          JOINT RightToeBase
          {
            OFFSET 0 -6.23286 14.3835
            CHANNELS 6 Xposition Yposition Zposition Zrotation Xrotation Yrotation
            End Site
            {
              OFFSET 0 0 3.8356
            }
          }
        }
      }
    }
  }
}
MOTION
Frames:	8
Frame Time:	0.004
0 0 0 0 0 -0 -6.68612 84.5452 -192.948 -0.985477 -0.718043 2.42011 -1.77636e-015 7.86299 0 2.25702 -6.53751 0.505996 0 22.6654 2.84217e-014 -0.881718 -0.958779 0.371298 -1.77636e-015 22.5723 2.05203 0.0900687 22.7719 -0.935686 -8.88178e-016 13.4246 -1.9178 2.39594 1.13655 -0.650781 3.7941 20.1358 -0.319195 4.4447 2.28208 4.70491 12.7665 -2.84217e-014 -2.84217e-014 -14.0756 -3.08132 -7.83289 28.396 -2.84217e-014 0 1.25038 4.47433 -4.31916 28.7929 -2.84217e-014 2.84217e-014 -5.32473 4.44693 1.60721 -3.85764 20.1358 -0.319195 -5.34616 9.5373 5.63838 -12.7665 2.84217e-014 2.84217e-014 12.4356 -1.02269 0.171264 -28.396 0 -2.84217e-014 -2.32305 -0.557547 5.83027 -28.7929 2.84217e-014 0 0.937104 -0.433549 0.692927 9.58901 -1.42109e-014 2.84217e-014 3.68197 6.09776 -0.646624 0 -41.7092 2.84217e-014 -2.6616 -2.22795 -4.56635 8.88178e-016 -41.5308 -2.84217e-014 6.61703 -11.5966 22.9695 0 -6.23286 14.3835 0 4.77083e-015 -0 -9.58901 -1.42109e-014 2.84217e-014 -1.85634 2.17238 0.820208 -7.10543e-015 -41.7092 0 2.37479 3.35722 -7.49672 0 -41.5308 0 1.05287 -12.7299 -5.92925 0 -6.23286 14.3835 4.41391e-032 1.59028e-015 -1.59028e-015 
0 0 0 0 0 -0 -6.68612 84.5452 -192.942 -0.985477 -0.718043 2.42011 0 7.86299 0 2.25702 -6.53751 0.505996 0 22.6654 2.84217e-014 -0.898148 -0.958779 0.371298 8.88178e-016 22.5723 2.05203 0.10475 22.7719 -0.935686 -8.88178e-016 13.4246 -1.9178 2.38324 1.1673 -0.650788 3.7941 20.1358 -0.319195 4.45872 2.28208 4.70491 12.7665 0 5.68434e-014 -14.0767 -3.08916 -7.83295 28.396 2.84217e-014 0 1.24989 4.46776 -4.31912 28.7929 0 0 -5.32433 4.44037 1.60543 -3.85764 20.1358 -0.319195 -5.34649 9.52942 5.64492 -12.7665 2.84217e-014 0 12.4357 -1.02805 0.171264 -28.396 2.84217e-014 2.84217e-014 -2.31755 -0.534346 5.81563 -28.7929 0 0 0.935636 -0.410932 0.70022 9.58901 -1.42109e-014 2.84217e-014 3.68197 6.09776 -0.646624 0 -41.7092 2.84217e-014 -2.66105 -2.22594 -4.55615 1.77636e-015 -41.5308 0 6.5913 -11.611 22.9647 0 -6.23286 14.3835 -3.97569e-016 1.59028e-015 3.18055e-015 -9.58901 -1.42109e-014 2.84217e-014 -1.85634 2.17238 0.820208 -7.10543e-015 -41.7092 0 2.37445 3.35727 -7.49091 0 -41.5308 0 1.05029 -12.7297 -5.9351 0 -6.23286 14.3835 -4.41391e-032 -1.59028e-015 -1.59028e-015 
0 0 0 0 0 -0 -6.68612 84.5452 -192.934 -0.985477 -0.718043 2.42011 0 7.86299 0 2.25872 -6.53751 0.505996 1.77636e-015 22.6654 -2.84217e-014 -0.892523 -0.95754 0.371297 0 22.5723 2.05203 0.099564 22.7719 -0.932175 0 13.4246 -1.9178 2.37487 1.18654 -0.648932 3.7941 20.1358 -0.319195 4.4548 2.27355 4.70622 12.7665 0 0 -14.073 -3.06234 -7.83275 28.396 0 2.84217e-014 1.24872 4.45241 -4.31903 28.7929 0 0 -5.33264 4.42572 1.58933 -3.85764 20.1358 -0.319195 -5.36102 9.5272 5.65385 -12.7665 0 0 12.4351 -1.04428 0.166083 -28.396 0 0 -2.30827 -0.545071 5.81897 -28.7929 2.84217e-014 0 0.918441 -0.42241 0.678508 9.58901 0 2.84217e-014 3.68197 6.09776 -0.646624 0 -41.7092 2.84217e-014 -2.66107 -2.2139 -4.58152 8.88178e-016 -41.5308 0 6.62933 -11.6026 22.9921 -1.42109e-014 -6.23286 14.3835 -7.95139e-016 1.59028e-015 -0 -9.58901 0 0 -1.85634 2.17238 0.820208 -7.10543e-015 -41.7092 2.84217e-014 2.37224 3.35756 -7.45322 0 -41.5308 -2.84217e-014 1.05856 -12.7301 -5.95644 0 -6.23286 14.3835 1.98785e-016 0 1.59028e-015 
0 0 0 0 0 -0 -6.68612 84.5452 -192.927 -0.985477 -0.718043 2.42011 -1.77636e-015 7.86299 0 2.19725 -6.53751 0.505996 1.77636e-015 22.6654 0 -0.746706 -0.98126 0.3713 8.88178e-016 22.5723 2.05203 -0.033769 22.7802 -0.908317 8.88178e-016 13.4246 -1.9178 2.40207 1.20564 -0.629269 3.7941 20.1358 -0.319195 4.36136 2.29783 4.72926 12.7665 2.84217e-014 0 -14.0749 -3.07576 -7.83402 28.396 0 0 1.24861 4.45096 -4.31902 28.7929 0 0 -5.34687 4.42339 1.60562 -3.85764 20.1358 -0.319195 -5.4962 9.55871 5.67247 -12.7665 2.84217e-014 -2.84217e-014 12.4544 -1.05493 0.191998 -28.396 0 0 -2.30094 -0.53746 5.80894 -28.7929 0 0 0.932239 -0.41535 0.67295 9.58901 0 2.84217e-014 3.68197 6.09776 -0.646624 0 -41.7092 0 -2.66089 -2.20806 -4.58898 -8.88178e-016 -41.5308 -2.84217e-014 6.61618 -11.6186 22.9954 0 -6.23286 14.3835 3.97569e-016 0 -6.36111e-015 -9.58901 0 2.84217e-014 -1.85701 2.17237 0.82603 -1.77636e-015 -41.7092 -2.84217e-014 2.37226 3.35755 -7.4536 7.10543e-015 -41.5308 0 1.05839 -12.742 -5.97122 0 -6.23286 14.3835 3.97569e-016 1.59028e-015 3.18055e-015 
0 0 0 0 0 -0 -6.68221 84.5452 -192.919 -0.985477 -0.718043 2.42011 -1.77636e-015 7.86299 -2.84217e-014 2.19371 -6.54614 0.506004 1.77636e-015 22.6654 -2.84217e-014 -0.740399 -0.974362 0.371299 -8.88178e-016 22.5723 2.05203 -0.038618 22.7607 -0.908998 8.88178e-016 13.4246 -1.9178 2.3932 1.2465 -0.63232 3.7941 20.1358 -0.319195 4.35961 2.30007 4.73527 12.7665 -2.84217e-014 0 -14.0777 -3.09115 -7.84672 28.396 -2.84217e-014 0 1.24776 4.43967 -4.31896 28.7929 -2.84217e-014 0 -5.3384 4.41252 1.59321 -3.85764 20.1358 -0.319195 -5.51378 9.54677 5.68292 -12.7665 0 0 12.4568 -1.06826 0.183788 -28.396 -2.84217e-014 -2.84217e-014 -2.29603 -0.524071 5.80168 -28.7929 0 0 0.938608 -0.402334 0.679625 9.58901 0 0 3.68197 6.09776 -0.646624 0 -41.7092 0 -2.65988 -2.20087 -4.57762 -8.88178e-016 -41.5308 -2.84217e-014 6.63647 -11.6212 22.9737 0 -6.23286 14.3835 1.19271e-015 0 3.18055e-015 -9.58901 0 0 -1.85679 2.17332 0.80688 -1.77636e-015 -41.7092 0 2.36351 3.36076 -7.46068 7.10543e-015 -41.5308 0 1.06256 -12.75 -5.94614 7.10543e-015 -6.23286 14.3835 -1.98785e-016 1.59028e-015 3.18055e-015 
0 0 0 0 0 -0 -6.6789 84.5451 -192.913 -0.985477 -0.718043 2.42011 -1.77636e-015 7.86299 -2.84217e-014 2.19526 -6.55017 0.506008 1.77636e-015 22.6654 -2.84217e-014 -0.74157 -0.97821 0.3713 -1.77636e-015 22.5723 2.05203 -0.0470907 22.7761 -0.90939 0 13.4246 -1.9178 2.3944 1.23702 -0.634517 3.7941 20.1358 -0.319195 4.36022 2.29856 4.73692 12.7665 0 0 -14.0734 -3.06174 -7.84199 28.396 0 0 1.24675 4.42642 -4.31888 28.7929 -2.84217e-014 0 -5.35919 4.39926 1.59075 -3.85764 20.1358 -0.319195 -5.52595 9.55927 5.68679 -12.7665 0 0 12.4573 -1.06928 0.189885 -28.396 0 0 -2.31324 -0.522943 5.79791 -28.7929 0 2.84217e-014 0.977607 -0.40011 0.674722 9.58901 -1.42109e-014 -2.84217e-014 3.68183 6.09776 -0.646624 0 -41.7092 2.84217e-014 -2.65959 -2.18566 -4.60178 8.88178e-016 -41.5308 0 6.63164 -11.6296 22.9934 -1.42109e-014 -6.23286 14.3835 7.95139e-016 -3.18055e-015 -3.18055e-015 -9.58901 -1.42109e-014 0 -1.85687 2.17559 0.794439 0 -41.7092 0 2.36238 3.37078 -7.44599 0 -41.5308 -2.84217e-014 1.04979 -12.7547 -5.94575 7.10543e-015 -6.23286 14.3835 -0 0 4.77083e-015 
0 0 0 0 0 -0 -6.6755 84.545 -192.904 -0.985429 -0.718041 2.42394 0 7.86299 0 2.19752 -6.56052 0.506019 -1.77636e-015 22.6654 0 -0.743578 -0.976912 0.3713 -8.88178e-016 22.5723 2.05203 -0.0290472 22.762 -0.909437 0 13.4246 -1.9178 2.37314 1.27918 -0.636583 3.7941 20.1358 -0.319195 4.35942 2.31869 4.738 12.7665 0 0 -14.0673 -3.08915 -7.85594 28.396 0 2.84217e-014 1.24647 4.42344 -4.31809 28.7929 0 0 -5.32553 4.39547 1.61192 -3.85764 20.1358 -0.319195 -5.53374 9.6149 5.67006 -12.7665 2.84217e-014 0 12.4586 -1.13004 0.231886 -28.396 2.84217e-014 0 -2.31908 -0.60431 5.78138 -28.7929 2.84217e-014 0 0.971678 -0.481801 0.654098 9.58901 -1.42109e-014 -2.84217e-014 3.68161 6.09776 -0.645805 0 -41.7092 0 -2.65839 -2.18216 -4.57778 -8.88178e-016 -41.5308 0 6.64765 -11.6392 22.9768 0 -6.23286 14.3835 -3.97569e-016 1.59028e-015 3.18055e-015 -9.58901 0 0 -1.85725 2.18517 0.786926 3.55271e-015 -41.7092 0 2.36106 3.36529 -7.46606 7.10543e-015 -41.5308 0 1.0704 -12.7499 -5.92069 -1.42109e-014 -6.23286 14.3835 1.98785e-016 0 -1.59028e-015 
0 0 0 0 0 -0 -6.67104 84.5449 -192.897 -0.985392 -0.71804 2.42685 0 7.86299 0 2.19996 -6.56553 0.506024 1.77636e-015 22.6654 0 -0.746008 -0.974759 0.371299 0 22.5723 2.05203 -0.0440744 22.7497 -0.909428 0 13.4246 -1.9178 2.37432 1.30004 -0.63886 3.7941 20.1358 -0.319195 4.36043 2.31817 4.74016 12.7665 2.84217e-014 0 -14.0692 -3.08134 -7.86147 28.396 -2.84217e-014 0 1.24601 4.41791 -4.31755 28.7929 2.84217e-014 0 -5.33535 4.3907 1.59298 -3.85764 20.1358 -0.319195 -5.55035 9.59245 5.67514 -12.7665 0 2.84217e-014 12.4585 -1.1045 0.220629 -28.396 -5.68434e-014 2.84217e-014 -2.31659 -0.522355 5.77826 -28.7929 0 0 1.01678 -0.399627 0.668209 9.58901 1.42109e-014 0 3.68136 6.09641 -0.644938 0 -41.7092 2.84217e-014 -2.65773 -2.17007 -4.58598 0 -41.5308 0 6.64302 -11.6432 23.0024 -1.42109e-014 -6.23286 14.3835 -3.97569e-016 0 -3.18055e-015 -9.58901 1.42109e-014 -2.84217e-014 -1.8572 2.18959 0.770063 3.55271e-015 -41.7092 -2.84217e-014 2.35732 3.36985 -7.42466 0 -41.5308 2.84217e-014 1.07422 -12.7563 -5.95915 0 -6.23286 14.3835 1.98785e-016 0 -0 
